<svg width="174" height="40" viewBox="0 0 174 40" fill="none" xmlns="http://www.w3.org/2000/svg">
<g clip-path="url(#clip0_525_753)">
<path d="M0.765586 31.6869C1.77479 27.6173 2.81879 23.5825 3.79319 19.513C4.83719 15.1999 5.81159 10.8869 6.89039 6.57385C7.02959 6.01733 7.69079 5.18255 8.10839 5.18255C11.484 5.0782 14.8596 5.11298 18.4788 5.11298C16.356 13.8434 11.7276 31.1999 12.006 31.1999C23.9424 31.1999 37.062 31.1999 48.9984 31.1304C50.3208 31.1304 54.7752 31.6869 54.7752 27.2347C54.6012 25.7391 53.3136 25.5999 52.1652 25.5304C49.3812 25.3565 46.5972 25.2521 43.8132 25.0782C42.9432 25.0086 42.0384 24.7652 41.2032 24.4869C35.4264 22.5043 33.4776 17.1478 36.6792 11.8956C39.324 7.51298 43.4304 5.35646 48.372 5.18255C54.636 4.97385 60.9348 5.14776 67.2336 5.11298C68.4864 5.11298 68.9736 5.53037 68.556 6.85211C68.1036 8.31298 67.7556 9.84342 67.4424 11.3391C67.2684 12.2782 66.7812 12.4869 65.9112 12.4869C61.7352 12.5217 57.5244 12.5217 53.3484 12.6956C51.8868 12.7652 47.328 12.2086 47.328 16.5565C47.328 17.9825 48.8244 18.3999 50.0772 18.4347C52.374 18.5043 54.6708 18.3304 56.9676 18.4347C58.986 18.5391 61.074 18.6782 63.0228 19.1999C66.0504 19.9999 67.6164 22.2956 67.6164 25.426C67.6512 32.2086 63.9972 39.7565 48.4416 39.7565C43.3608 39.7565 37.3752 39.7565 32.5728 39.7565C31.0764 39.7565 33.2688 34.0173 33.6516 32.2086C32.4684 33.2521 31.668 34.4347 30.6936 35.4782C28.5012 37.7738 25.7868 39.1304 22.6896 39.7912C17.5044 39.7912 12.2148 39.7912 7.09919 39.7912C3.75839 39.7912 -0.730814 37.0782 0.765586 31.6869Z" fill="#003876"/>
<path d="M86.7216 0.556519C84.4944 1.77391 82.2672 2.9913 80.04 4.13913C77.8128 5.32174 75.5508 6.43478 72.9756 7.75652C73.1844 6.85217 73.2888 6.26087 73.428 5.66956C73.8108 4.06956 73.5324 3.58261 71.9316 3.23478C68.6952 2.50434 65.424 1.80869 62.1876 1.11304C61.5612 0.97391 60.9696 0.765214 60.3432 0.556519C69.1476 0.556519 77.952 0.556519 86.7216 0.556519Z" fill="#EC174C"/>
<path d="M82.9284 21.3565H76.8384V18.0869H92.9856V21.3565H86.826V39.4434H82.9284V21.3565Z" fill="#8E979D"/>
<path d="M93.7512 28.9738C93.7512 26.8869 93.7164 25.3912 93.612 23.9999H96.9876L97.1268 26.9564H97.266C98.0316 24.7651 99.8412 23.6521 101.477 23.6521C101.86 23.6521 102.068 23.6869 102.382 23.7564V27.4434C102.068 27.3738 101.72 27.3043 101.233 27.3043C99.354 27.3043 98.1012 28.5217 97.7532 30.2608C97.6836 30.6086 97.614 31.026 97.614 31.4782V39.4434H93.7164V28.9738H93.7512Z" fill="#8E979D"/>
<path d="M114.04 39.443L113.796 37.7387H113.692C112.752 38.9561 111.116 39.7909 109.133 39.7909C106.036 39.7909 104.296 37.53 104.296 35.1996C104.296 31.3039 107.741 29.3561 113.448 29.3561V29.1126C113.448 28.1039 113.03 26.4344 110.316 26.4344C108.785 26.4344 107.219 26.9213 106.175 27.5822L105.409 25.043C106.558 24.3474 108.541 23.6865 110.977 23.6865C115.919 23.6865 117.346 26.817 117.346 30.1909V35.7561C117.346 37.1474 117.415 38.5039 117.554 39.4778H114.04V39.443ZM113.518 31.8952C110.768 31.8257 108.124 32.417 108.124 34.7822C108.124 36.3126 109.098 37.0083 110.351 37.0083C111.917 37.0083 113.03 35.9996 113.378 34.8865C113.483 34.6083 113.518 34.2952 113.518 34.017V31.8952Z" fill="#8E979D"/>
<path d="M132.484 38.9564C131.648 39.3391 130.048 39.7564 128.099 39.7564C123.296 39.7564 120.13 36.6956 120.13 31.8956C120.13 27.2695 123.296 23.6521 128.725 23.6521C130.152 23.6521 131.614 23.9651 132.484 24.3825L131.788 27.3043C131.161 27.026 130.222 26.713 128.83 26.713C125.837 26.713 124.062 28.9043 124.097 31.7217C124.097 34.8869 126.15 36.6956 128.83 36.6956C130.187 36.6956 131.126 36.4173 131.892 36.1043L132.484 38.9564Z" fill="#8E979D"/>
<path d="M140.905 19.6173V23.9999H144.629V26.9217H140.905V33.739C140.905 35.6173 141.427 36.5912 142.889 36.5912C143.55 36.5912 144.072 36.4869 144.42 36.4173L144.49 39.4086C143.933 39.6173 142.889 39.7912 141.671 39.7912C140.244 39.7912 139.026 39.3043 138.295 38.539C137.46 37.6347 137.077 36.2434 137.077 34.226V26.9217H134.85V23.9999H137.077V20.5217L140.905 19.6173Z" fill="#8E979D"/>
<path d="M162.342 31.5825C162.342 37.2521 158.34 39.7912 154.408 39.7912C150.023 39.7912 146.682 36.7651 146.682 31.826C146.682 26.7478 150.023 23.6521 154.651 23.6521C159.28 23.6521 162.342 26.8869 162.342 31.5825ZM150.719 31.7217C150.719 34.713 152.18 36.9391 154.547 36.9391C156.774 36.9391 158.305 34.7478 158.305 31.6521C158.305 29.2521 157.226 26.5043 154.582 26.5043C151.832 26.5043 150.719 29.1825 150.719 31.7217Z" fill="#8E979D"/>
<path d="M164.639 28.9738C164.639 26.8869 164.604 25.3912 164.5 23.9999H167.875L168.014 26.9564H168.154C168.919 24.7651 170.729 23.6521 172.364 23.6521C172.747 23.6521 172.956 23.6869 173.269 23.7564V27.4434C172.956 27.3738 172.608 27.3043 172.121 27.3043C170.242 27.3043 168.989 28.5217 168.641 30.2608C168.571 30.6086 168.502 31.026 168.502 31.4782V39.4434H164.604V28.9738H164.639Z" fill="#8E979D"/>
</g>
<defs>
<clipPath id="clip0_525_753">
<rect width="174" height="40" fill="white"/>
</clipPath>
</defs>
</svg>
