<svg width="176" height="40" viewBox="0 0 176 40" fill="none" xmlns="http://www.w3.org/2000/svg">
<g clip-path="url(#clip0_525_1594)">
<path d="M0.774394 31.6871C1.79519 27.6176 2.85119 23.5828 3.83679 19.5132C4.89279 15.2002 5.87839 10.8871 6.96959 6.57409C7.11039 6.01757 7.77919 5.18279 8.20159 5.18279C11.616 5.07844 15.0304 5.11323 18.6912 5.11323C16.544 13.8437 11.8624 31.2002 12.144 31.2002C24.2176 31.2002 37.488 31.2002 49.5616 31.1306C50.8992 31.1306 55.4048 31.6871 55.4048 27.235C55.2288 25.7393 53.9264 25.6002 52.7648 25.5306C49.9488 25.3567 47.1328 25.2524 44.3168 25.0784C43.4368 25.0089 42.5216 24.7654 41.6768 24.4871C35.8336 22.5045 33.8624 17.148 37.1008 11.8958C39.776 7.51323 43.9296 5.3567 48.928 5.18279C55.264 4.97409 61.6352 5.14801 68.0064 5.11323C69.2736 5.11323 69.7664 5.53062 69.344 6.85236C68.8864 8.31323 68.5344 9.84366 68.2176 11.3393C68.0416 12.2784 67.5488 12.4871 66.6688 12.4871C62.4448 12.5219 58.1856 12.5219 53.9616 12.6958C52.4832 12.7654 47.872 12.2089 47.872 16.5567C47.872 17.9828 49.3856 18.4002 50.6528 18.435C52.976 18.5045 55.2992 18.3306 57.6224 18.435C59.664 18.5393 61.776 18.6784 63.7472 19.2002C66.8096 20.0002 68.3936 22.2958 68.3936 25.4263C68.4288 32.2089 64.7328 39.7567 48.9984 39.7567C43.8592 39.7567 37.8048 39.7567 32.9472 39.7567C31.4336 39.7567 33.6512 34.0176 34.0384 32.2089C32.8416 33.2524 32.032 34.435 31.0464 35.4784C28.8288 37.7741 26.0832 39.1306 22.9504 39.7915C17.7056 39.7915 12.3552 39.7915 7.18079 39.7915C3.80159 39.7915 -0.739206 37.0784 0.774394 31.6871Z" fill="white"/>
<path d="M87.7184 0.556641C85.4656 1.77403 83.2128 2.99142 80.96 4.13925C78.7072 5.32186 76.4192 6.4349 73.8144 7.75664C74.0256 6.85229 74.1312 6.26099 74.272 5.66968C74.6592 4.06968 74.3776 3.58273 72.7584 3.2349C69.4848 2.50447 66.176 1.80881 62.9024 1.11316C62.2688 0.974032 61.6704 0.765336 61.0368 0.556641C69.9424 0.556641 78.848 0.556641 87.7184 0.556641Z" fill="#EC174C"/>
<path d="M83.8816 21.3565H77.7216V18.0869H94.0544V21.3565H87.824V39.4434H83.8816V21.3565Z" fill="white"/>
<path d="M94.8288 28.9741C94.8288 26.8871 94.7936 25.3915 94.688 24.0002H98.1024L98.2432 26.9567H98.384C99.1584 24.7654 100.989 23.6523 102.643 23.6523C103.03 23.6523 103.242 23.6871 103.558 23.7567V27.4436C103.242 27.3741 102.89 27.3045 102.397 27.3045C100.496 27.3045 99.2288 28.5219 98.8768 30.261C98.8064 30.6089 98.736 31.0263 98.736 31.4784V39.4436H94.7936V28.9741H94.8288Z" fill="white"/>
<path d="M115.35 39.443L115.104 37.7387H114.998C114.048 38.9561 112.393 39.7909 110.387 39.7909C107.254 39.7909 105.494 37.53 105.494 35.1996C105.494 31.3039 108.979 29.3561 114.752 29.3561V29.1126C114.752 28.1039 114.329 26.4344 111.584 26.4344C110.035 26.4344 108.451 26.9213 107.395 27.5822L106.621 25.043C107.782 24.3474 109.789 23.6865 112.253 23.6865C117.251 23.6865 118.694 26.817 118.694 30.1909V35.7561C118.694 37.1474 118.765 38.5039 118.905 39.4778H115.35V39.443ZM114.822 31.8952C112.041 31.8257 109.366 32.417 109.366 34.7822C109.366 36.3126 110.352 37.0083 111.619 37.0083C113.203 37.0083 114.329 35.9996 114.681 34.8865C114.787 34.6083 114.822 34.2952 114.822 34.017V31.8952Z" fill="white"/>
<path d="M134.006 38.9567C133.162 39.3393 131.542 39.7567 129.571 39.7567C124.714 39.7567 121.51 36.6958 121.51 31.8958C121.51 27.2697 124.714 23.6523 130.205 23.6523C131.648 23.6523 133.126 23.9654 134.006 24.3828L133.302 27.3045C132.669 27.0263 131.718 26.7132 130.31 26.7132C127.283 26.7132 125.488 28.9045 125.523 31.7219C125.523 34.8871 127.6 36.6958 130.31 36.6958C131.683 36.6958 132.634 36.4176 133.408 36.1045L134.006 38.9567Z" fill="white"/>
<path d="M142.525 19.6172V23.9998H146.291V26.9215H142.525V33.7389C142.525 35.6172 143.053 36.5911 144.531 36.5911C145.2 36.5911 145.728 36.4868 146.08 36.4172L146.15 39.4085C145.587 39.6172 144.531 39.7911 143.299 39.7911C141.856 39.7911 140.624 39.3041 139.885 38.5389C139.04 37.6346 138.653 36.2433 138.653 34.2259V26.9215H136.4V23.9998H138.653V20.5215L142.525 19.6172Z" fill="white"/>
<path d="M164.208 31.5828C164.208 37.2523 160.16 39.7915 156.182 39.7915C151.747 39.7915 148.368 36.7654 148.368 31.8263C148.368 26.748 151.747 23.6523 156.429 23.6523C161.11 23.6523 164.208 26.8871 164.208 31.5828ZM152.451 31.7219C152.451 34.7132 153.93 36.9393 156.323 36.9393C158.576 36.9393 160.125 34.748 160.125 31.6523C160.125 29.2523 159.034 26.5045 156.358 26.5045C153.578 26.5045 152.451 29.1828 152.451 31.7219Z" fill="white"/>
<path d="M166.531 28.9741C166.531 26.8871 166.496 25.3915 166.39 24.0002H169.805L169.946 26.9567H170.086C170.861 24.7654 172.691 23.6523 174.346 23.6523C174.733 23.6523 174.944 23.6871 175.261 23.7567V27.4436C174.944 27.3741 174.592 27.3045 174.099 27.3045C172.198 27.3045 170.931 28.5219 170.579 30.261C170.509 30.6089 170.438 31.0263 170.438 31.4784V39.4436H166.496V28.9741H166.531Z" fill="white"/>
</g>
<defs>
<clipPath id="clip0_525_1594">
<rect width="176" height="40" fill="white"/>
</clipPath>
</defs>
</svg>
